<svg width="276" height="284" viewBox="0 0 276 284" fill="none" xmlns="http://www.w3.org/2000/svg">
  <mask id="path-1-inside-1_1_944" fill="white">
    <path fill-rule="evenodd" clip-rule="evenodd" d="M139.732 1C138.962 -0.333333 137.038 -0.333333 136.268 1L131.072 10H12C5.37258 10 0 15.3726 0 22V272C0 278.627 5.37258 284 12 284H264C270.627 284 276 278.627 276 272V22C276 15.3726 270.627 10 264 10H144.928L139.732 1Z" />
  </mask>
  <path fill-rule="evenodd" clip-rule="evenodd" d="M139.732 1C138.962 -0.333333 137.038 -0.333333 136.268 1L131.072 10H12C5.37258 10 0 15.3726 0 22V272C0 278.627 5.37258 284 12 284H264C270.627 284 276 278.627 276 272V22C276 15.3726 270.627 10 264 10H144.928L139.732 1Z" fill="white" />
  <path d="M136.268 1L135.402 0.499997V0.5L136.268 1ZM139.732 1L140.598 0.5V0.499997L139.732 1ZM131.072 10V11H131.649L131.938 10.5L131.072 10ZM144.928 10L144.062 10.5L144.351 11H144.928V10ZM137.134 1.5C137.519 0.833333 138.481 0.833332 138.866 1.5L140.598 0.499997C139.443 -1.5 136.557 -1.5 135.402 0.499997L137.134 1.5ZM131.938 10.5L137.134 1.5L135.402 0.5L130.206 9.50003L131.938 10.5ZM12 11H131.072V9.00003H12V11ZM1 22C1 15.9249 5.92487 11 12 11V9.00003C4.8203 9.00003 -1 14.8203 -1 22H1ZM1 272V22H-1V272H1ZM12 283C5.92487 283 1 278.075 1 272H-1C-1 279.18 4.8203 285 12 285V283ZM264 283H12V285H264V283ZM275 272C275 278.075 270.075 283 264 283V285C271.18 285 277 279.18 277 272H275ZM275 22V272H277V22H275ZM264 11C270.075 11 275 15.9249 275 22H277C277 14.8203 271.18 9.00003 264 9.00003V11ZM144.928 11H264V9.00003H144.928V11ZM138.866 1.5L144.062 10.5L145.794 9.50003L140.598 0.5L138.866 1.5Z" fill="#3470FF" mask="url(#path-1-inside-1_1_944)" />
</svg>